<svg xmlns="http://www.w3.org/2000/svg" version="1.1" xmlns:xlink="http://www.w3.org/1999/xlink" xmlns:svgjs="http://svgjs.dev/svgjs" width="1000" height="1000" viewBox="0 0 1000 1000"><rect width="1000" height="1000" fill="#000000"></rect><g transform="matrix(0.7,0,0,0.7,150,106.25)"><svg viewBox="0 0 320 360" data-background-color="#f8efed" preserveAspectRatio="xMidYMid meet" height="1125" width="1000" xmlns="http://www.w3.org/2000/svg" xmlns:xlink="http://www.w3.org/1999/xlink"><g id="tight-bounds" transform="matrix(1,0,0,1,0,0)"><svg viewBox="0 0 320 360" height="360" width="320"><g><svg></svg></g><g><svg viewBox="0 0 320 360" height="360" width="320"><g><path xmlns="http://www.w3.org/2000/svg" d="M297.491 100.645c-12.426-21.51-112.674-79.355-137.491-79.355-24.817 0-125.028 57.845-137.491 79.355-11.591 20.02-11.591 138.726 0 158.746 12.463 21.474 112.674 79.319 137.491 79.319 24.817 0 125.064-57.845 137.491-79.355 11.591-20.02 11.591-138.69 0-158.71zM309.481 93.705c-14.461-24.998-119.469-86.295-149.481-86.295-30.012 0-135.02 61.297-149.481 86.295-14.025 24.199-14.025 148.391 0 172.59 14.461 24.998 119.469 86.295 149.481 86.295 30.012 0 135.02-61.297 149.481-86.259 14.025-24.235 14.025-148.427 0-172.626zM300.906 261.353c-12.753 22.055-115.472 81.317-140.906 81.318-25.434 0-128.153-59.298-140.906-81.354-11.881-20.529-11.881-142.178 0-162.707 12.753-22.019 115.472-81.281 140.906-81.281 25.434 0 128.153 59.298 140.906 81.318 11.881 20.529 11.881 142.178 0 162.706z" fill="#ffffff" fill-rule="nonzero" stroke="none" stroke-width="1" stroke-linecap="butt" stroke-linejoin="miter" stroke-miterlimit="10" stroke-dasharray="" stroke-dashoffset="0" font-family="none" font-weight="none" font-size="none" text-anchor="none" style="mix-blend-mode: normal" data-fill-palette-color="tertiary"></path></g><g transform="matrix(1,0,0,1,89.79123251787524,90)"><svg viewBox="0 0 140.4175349642495 180" height="180" width="140.4175349642495"><g><svg viewBox="0 0 140.4175349642495 180" height="180" width="140.4175349642495"><g><svg viewBox="0 0 223.99999999999997 287.14362497721896" height="180" width="140.4175349642495"><g transform="matrix(1,0,0,1,0,166.83371033506535)"><svg viewBox="0 0 223.99999999999997 120.30991464215363" height="120.30991464215363" width="223.99999999999997"><g id="textblocktransform"><svg viewBox="0 0 223.99999999999997 120.30991464215363" height="120.30991464215363" width="223.99999999999997" id="textblock"><g><svg viewBox="0 0 223.99999999999997 120.30991464215363" height="120.30991464215363" width="223.99999999999997"><g transform="matrix(1,0,0,1,0,0)"><svg width="223.99999999999997" viewBox="5.400000095367432 -36.849998474121094 76.1500015258789 40.89999771118164" height="120.30991464215363" data-palette-color="#f8efed"><path d="M25.7-21.3L25.7-21.3Q27.35-21.3 28.28-20.4 29.2-19.5 29.2-17.9L29.2-17.9Q29.2-17.5 29.13-17.07 29.05-16.65 28.95-16.35L28.95-16.35Q28.3-16.45 27.5-16.53 26.7-16.6 25.6-16.6L25.6-16.6Q23.45-16.6 21.25-16.23 19.05-15.85 17.05-15.6L17.05-15.6Q15.9-12.95 14.95-10.48 14-8 13.33-5.95 12.65-3.9 12.28-2.4 11.9-0.9 11.85-0.15L11.85-0.15Q15.9-1 20.03-1.6 24.15-2.2 28.7-2.5L28.7-2.5Q29.25-1.65 29.63-0.65 30 0.35 30 1.5L30 1.5Q30 1.8 30 2.15 30 2.5 29.9 2.85L29.9 2.85Q28.5 2.8 26.95 2.78 25.4 2.75 22.9 2.75L22.9 2.75Q21.25 2.75 19.78 2.83 18.3 2.9 16.8 3.05 15.3 3.2 13.63 3.45 11.95 3.7 9.85 4.05L9.85 4.05Q7.55 3.15 5.4-0.35L5.4-0.35Q6.25-2.15 7.78-5.83 9.3-9.5 11.65-15.65L11.65-15.65Q9.4-16.35 8.7-18.15L8.7-18.15Q8.95-18.4 10.15-18.78 11.35-19.15 13.1-19.55L13.1-19.55Q13.85-21.5 14.38-22.95 14.9-24.4 15.3-25.68 15.7-26.95 16.03-28.18 16.35-29.4 16.65-30.85L16.65-30.85Q14.9-30.95 13.9-31.83 12.9-32.7 12.9-34.1L12.9-34.1Q12.9-34.5 13.03-35.05 13.15-35.6 13.3-36L13.3-36Q14.3-35.85 15.23-35.8 16.15-35.75 17.65-35.75L17.65-35.75Q20.8-35.75 23.55-35.93 26.3-36.1 28.53-36.3 30.75-36.5 32.35-36.68 33.95-36.85 34.8-36.85L34.8-36.85Q35.95-36.85 36.85-35.65 37.75-34.45 38.2-32.25L38.2-32.25Q36.65-32.4 35.68-32.45 34.7-32.5 33.95-32.5L33.95-32.5Q31.2-32.5 28.93-32.23 26.65-31.95 24.55-31.65L24.55-31.65Q24.25-31.2 23.88-30.5 23.5-29.8 22.9-28.55 22.3-27.3 21.43-25.4 20.55-23.5 19.3-20.65L19.3-20.65Q21.2-20.95 22.88-21.13 24.55-21.3 25.7-21.3ZM56.15 3.7L56.15 3.7Q56.05 3.75 55.95 3.75 55.85 3.75 55.55 3.75L55.55 3.75Q54.85 3.75 53.92 3.53 53 3.3 52.12 2.98 51.25 2.65 50.62 2.25 50 1.85 49.85 1.55L49.85 1.55Q49.8 0.85 49.8 0.1 49.8-0.65 49.8-1.35L49.8-1.35Q49.8-6.95 50.62-13.05 51.45-19.15 53.35-26.25L53.35-26.25Q53.55-26.95 53.77-28.03 54-29.1 54.25-30.35L54.25-30.35Q53.05-29.4 51.4-27.33 49.75-25.25 47.92-22.43 46.1-19.6 44.27-16.23 42.45-12.85 40.95-9.38 39.45-5.9 38.37-2.5 37.3 0.9 37.05 3.8L37.05 3.8Q34.65 3.1 33.72 2.4 32.8 1.7 32.8 0.7L32.8 0.7Q32.8-0.2 33.35-1.85 33.9-3.5 34.9-5.75 35.9-8 37.35-10.78 38.8-13.55 40.55-16.75L40.55-16.75Q42.55-20.4 44.47-23.6 46.4-26.8 48.25-29.4 50.1-32 51.87-33.9 53.65-35.8 55.4-36.8L55.4-36.8Q56.1-36.8 57.27-36.45 58.45-36.1 59.57-35.6 60.7-35.1 61.57-34.58 62.45-34.05 62.55-33.7L62.55-33.7Q61.85-32.3 60.9-29.5 59.95-26.7 58.97-23.15 58-19.6 57.12-15.63 56.25-11.65 55.75-8L55.75-8Q56.9-10.75 58.42-13.73 59.95-16.7 61.65-19.63 63.35-22.55 65.12-25.3 66.9-28.05 68.6-30.33 70.3-32.6 71.77-34.3 73.25-36 74.4-36.8L74.4-36.8Q75.1-36.8 76.27-36.45 77.45-36.1 78.57-35.6 79.7-35.1 80.57-34.58 81.45-34.05 81.55-33.7L81.55-33.7Q79.95-30.85 78.75-26.75 77.55-22.65 76.72-18.15 75.9-13.65 75.47-9.22 75.05-4.8 75.05-1.3L75.05-1.3Q75.05-0.15 75.05 1.1 75.05 2.35 75.15 3.7L75.15 3.7Q74.45 3.7 73.47 3.53 72.5 3.35 71.57 3.05 70.65 2.75 69.9 2.38 69.15 2 68.85 1.55L68.85 1.55Q68.8 0.85 68.8 0.1 68.8-0.65 68.8-1.35L68.8-1.35Q68.8-6.95 69.62-13.05 70.45-19.15 72.35-26.25L72.35-26.25Q72.55-26.95 72.8-28.15 73.05-29.35 73.3-30.65L73.3-30.65Q71.9-29.95 70.12-27.98 68.35-26 66.52-23.18 64.7-20.35 62.92-16.9 61.15-13.45 59.72-9.88 58.3-6.3 57.32-2.78 56.35 0.75 56.15 3.7Z" opacity="1" transform="matrix(1,0,0,1,0,0)" fill="#000000" class="wordmark-text-0" data-fill-palette-color="quaternary" id="text-0"></path></svg></g></svg></g></svg></g></svg></g><g transform="matrix(1,0,0,1,42.78399999999999,0)"><svg viewBox="0 0 138.432 138.4314269260043" height="138.4314269260043" width="138.432"><g><svg xmlns="http://www.w3.org/2000/svg" xmlns:xlink="http://www.w3.org/1999/xlink" version="1.0" x="0" y="0" viewBox="4.667734146118164 4.6859588623046875 90.3050308227539 90.30465698242188" enable-background="new 0 0 100 100" xml:space="preserve" height="138.4314269260043" width="138.432" class="icon-icon-0" data-fill-palette-color="quaternary" id="icon-0"><path d="M17.504 35.743c-1.334 8.611 0.522 17.134 5.093 23.382 3.514 4.801 8.413 7.905 13.796 8.739 5.677 0.88 11.253-0.429 15.703-3.685 1.248-0.912 2.36-1.946 3.326-3.076-2.222 0.978-4.814 1.267-7.626 0.831-11.717-1.816-19.673-13.464-17.735-25.964 0.934-6.03 4.384-11.497 9.713-15.397 6.768-4.952 15.953-6.97 25.201-5.537 7.474 1.158 17.67 5.964 25.56 15.213 0 0-22.835-39.421-56.115-20.356C23.689 16.04 18.653 28.323 17.504 35.743z" fill="#000000" data-fill-palette-color="quaternary"></path><path d="M82.544 65.256c1.659-8.555 0.125-17.141-4.207-23.557-3.331-4.931-8.109-8.217-13.457-9.253-5.639-1.094-11.261 0.004-15.83 3.091-1.282 0.863-2.431 1.854-3.44 2.947 2.257-0.894 4.859-1.084 7.652-0.543 11.64 2.257 19.151 14.196 16.744 26.616-1.161 5.989-4.815 11.324-10.288 15.019-6.949 4.692-16.205 6.364-25.393 4.582C26.902 82.719 16.894 77.532 9.358 67.992c0 0 21.331 40.255 55.307 22.457C75.621 84.712 81.115 72.628 82.544 65.256z" fill="#000000" data-fill-palette-color="quaternary"></path><path d="M35.726 82.88c8.611 1.334 17.133-0.522 23.381-5.094 4.801-3.514 7.905-8.413 8.74-13.796 0.879-5.676-0.429-11.253-3.686-15.702-0.912-1.248-1.946-2.36-3.076-3.327 0.979 2.222 1.267 4.815 0.831 7.626-1.816 11.717-13.463 19.673-25.965 17.736-6.029-0.934-11.497-4.385-15.395-9.713-4.952-6.768-6.971-15.954-5.538-25.202 1.158-7.474 5.964-17.67 15.213-25.559 0 0-39.421 22.835-20.356 56.115C16.022 76.695 28.305 81.73 35.726 82.88z" fill="#000000" data-fill-palette-color="quaternary"></path><path d="M90.432 35.718c-5.738-10.955-17.822-16.45-25.194-17.879-8.554-1.659-17.141-0.125-23.557 4.208-4.931 3.331-8.217 8.108-9.254 13.456-1.094 5.64 0.004 11.261 3.092 15.83 0.863 1.282 1.854 2.431 2.946 3.441-0.894-2.257-1.084-4.859-0.542-7.652 2.257-11.64 14.196-19.151 26.615-16.744 5.99 1.161 11.324 4.816 15.019 10.289 4.693 6.949 6.363 16.204 4.583 25.392-1.44 7.423-6.626 17.431-16.167 24.966C67.973 91.025 108.228 69.694 90.432 35.718z" fill="#000000" data-fill-palette-color="quaternary"></path></svg></g></svg></g><g></g></svg></g></svg></g></svg></g></svg></g><defs></defs></svg><rect width="320" height="360" fill="none" stroke="none" visibility="hidden"></rect></g></svg></g></svg>